<svg width="295" height="87" viewBox="0 0 295 87" fill="none" xmlns="http://www.w3.org/2000/svg">
<g filter="url(#filter0_i_23329_7)">
<rect width="295" height="87" rx="11" fill="#2194FF"/>
</g>
<rect x="2" y="2" width="291" height="83" rx="9" stroke="url(#paint0_linear_23329_7)" stroke-width="4"/>
<path opacity="0.31" d="M288 30.918V19.0945C287.946 16.8454 287.292 14.7153 286.176 13.157C285.06 11.5986 283.57 10.7348 282.023 10.7492H12.7505C11.9963 10.7479 11.2492 10.9627 10.552 11.3814C9.85481 11.8001 9.22113 12.4144 8.68714 13.1894C8.15315 13.9643 7.72932 14.8847 7.43984 15.8979C7.15036 16.9111 7.0009 17.9973 7 19.0945V54.7646C7 54.7646 43.1178 36.5948 120.005 30.3483C191.478 24.5415 288 30.918 288 30.918Z" fill="url(#paint1_linear_23329_7)"/>
<path opacity="0.15" d="M9 79.7734H282.248C283.003 79.7747 283.751 79.5598 284.449 79.1409C285.147 78.722 285.781 78.1074 286.315 77.3322C286.849 76.5569 287.273 75.6363 287.562 74.623C287.851 73.6096 288 72.5234 288 71.4264V53.7637C288 53.7637 276.558 70.2182 214.47 73.623C160.189 76.6183 9 79.7734 9 79.7734Z" fill="white"/>
<defs>
<filter id="filter0_i_23329_7" x="0" y="0" width="295" height="91" filterUnits="userSpaceOnUse" color-interpolation-filters="sRGB">
<feFlood flood-opacity="0" result="BackgroundImageFix"/>
<feBlend mode="normal" in="SourceGraphic" in2="BackgroundImageFix" result="shape"/>
<feColorMatrix in="SourceAlpha" type="matrix" values="0 0 0 0 0 0 0 0 0 0 0 0 0 0 0 0 0 0 127 0" result="hardAlpha"/>
<feOffset dy="4"/>
<feGaussianBlur stdDeviation="6"/>
<feComposite in2="hardAlpha" operator="arithmetic" k2="-1" k3="1"/>
<feColorMatrix type="matrix" values="0 0 0 0 0 0 0 0 0 0 0 0 0 0 0 0 0 0 0.45 0"/>
<feBlend mode="normal" in2="shape" result="effect1_innerShadow_23329_7"/>
</filter>
<linearGradient id="paint0_linear_23329_7" x1="-2.78116e-07" y1="32" x2="295" y2="32" gradientUnits="userSpaceOnUse">
<stop stop-color="#2194FF"/>
<stop offset="0.522421" stop-color="#81C0FB"/>
<stop offset="1" stop-color="#0079C2"/>
</linearGradient>
<linearGradient id="paint1_linear_23329_7" x1="147.5" y1="1.31446" x2="147.5" y2="65.1788" gradientUnits="userSpaceOnUse">
<stop stop-color="#81C0FB"/>
<stop offset="1" stop-color="white"/>
</linearGradient>
</defs>
</svg>
