<svg width="166" height="66" viewBox="0 0 166 66" fill="none" xmlns="http://www.w3.org/2000/svg">
<rect width="166" height="66" rx="20" fill="#F1F1F1"/>
<g clip-path="url(#clip0_23329_5)">
<path d="M46.0774 24.7471H25V45H46.0774V24.7471Z" fill="#ED1B34"/>
<path fill-rule="evenodd" clip-rule="evenodd" d="M42.6737 26.7677C42.4513 26.7734 42.2351 26.8401 42.0508 26.96C41.8664 27.08 41.7216 27.2481 41.6334 27.4445L38.984 31.6371C38.8063 31.9858 38.6987 32.3636 38.6667 32.7507C38.658 32.9892 38.7042 33.2265 38.8019 33.4459L41.6698 40.034H30.5225C30.3289 40.0199 30.1474 39.9379 30.0125 39.8036C29.8776 39.6693 29.7987 39.4921 29.7908 39.3055V27.9446C29.7075 26.3926 27.3876 26.3926 27.3373 27.9913L27.3858 40.0407C27.3798 40.3482 27.4376 40.6538 27.5557 40.9396C27.6738 41.2254 27.8499 41.4858 28.0738 41.7055C28.2976 41.9252 28.5647 42.0999 28.8595 42.2194C29.1543 42.3388 29.4709 42.4006 29.7908 42.4013H44.9902L41.2883 33.2925C41.2193 33.1221 41.1921 32.9386 41.2089 32.7565C41.2258 32.5743 41.2862 32.3983 41.3854 32.2423L43.8407 28.4081C43.8857 28.2394 43.913 28.0669 43.9222 27.893C43.9122 27.584 43.7751 27.2915 43.5411 27.0796C43.307 26.8677 42.9951 26.7537 42.6737 26.7627V26.7677ZM36.6553 26.7677C36.8156 26.7614 36.9755 26.7874 37.1246 26.8441C37.2738 26.9008 37.409 26.9868 37.5215 27.0967C37.6341 27.2066 37.7214 27.338 37.778 27.4823C37.8346 27.6266 37.8591 27.7807 37.85 27.9346V36.1382C37.85 38.0119 36.3952 39.2572 34.611 39.2572C32.8771 39.2572 31.4258 38.0119 31.4258 36.1382V27.9446C31.4258 26.3926 33.81 26.3926 33.81 27.9446V36.0715C33.81 37.1551 35.4641 37.2501 35.4641 36.0715V27.9446C35.4562 27.791 35.4814 27.6374 35.538 27.4935C35.5947 27.3497 35.6817 27.2186 35.7936 27.1086C35.9054 26.9986 36.0397 26.9119 36.188 26.8541C36.3363 26.7963 36.4954 26.7686 36.6553 26.7727V26.7677Z" fill="white"/>
<path fill-rule="evenodd" clip-rule="evenodd" d="M54.0291 27.0977V35.5296C54.0291 37.6384 53.7968 38.8053 52.0143 38.8053C51.7115 38.8241 51.4079 38.7844 51.1213 38.6886V42.3178C51.657 42.5032 52.2261 42.5832 52.7946 42.5528C57.8125 42.5528 58.0362 38.9237 58.0362 36.8149V30.7285H60.9353V42.3195H64.9528V27.0977H54.0291Z" fill="#2D2D2D"/>
<path fill-rule="evenodd" clip-rule="evenodd" d="M66.288 27.0977L71.7533 38.1052L69.7454 42.3194H74.094L80.5615 27.0977H76.2129L73.8721 33.5375L71.0822 27.0977H66.288Z" fill="#2D2D2D"/>
<path fill-rule="evenodd" clip-rule="evenodd" d="M81.7874 42.3194H85.8031V35.763L89.9298 42.3194H95.0605L89.3732 34.4743L94.9477 27.0977H90.1535L85.8031 33.5375V27.0977H81.7874V42.3194Z" fill="#2D2D2D"/>
<path fill-rule="evenodd" clip-rule="evenodd" d="M101.639 42.7895C106.992 42.7895 109.442 38.807 109.442 34.7094C109.442 30.7285 106.988 26.7476 101.639 26.7476C96.3973 26.7476 93.9438 30.7285 93.9438 34.7094C93.9438 38.807 96.3973 42.7895 101.639 42.7895ZM101.639 39.1587C99.853 39.1587 98.0706 37.6367 98.0706 34.7094C98.0706 31.782 99.853 30.375 101.639 30.375C103.534 30.375 105.318 31.7804 105.318 34.7094C105.318 37.6384 103.534 39.1587 101.639 39.1587Z" fill="#2D2D2D"/>
<path fill-rule="evenodd" clip-rule="evenodd" d="M111.451 27.0976V42.3194H115.356L120.93 33.1873V42.3194H124.835V27.0976H120.93L115.356 36.2313V27.0976H111.451ZM118.255 26.2791C119.928 26.2791 121.6 25.6923 122.38 23.9369L120.039 23C119.705 24.1669 118.701 24.2886 118.255 24.2886C117.919 24.2886 116.804 24.1703 116.582 23L114.241 23.9369C114.908 25.6923 116.693 26.2791 118.255 26.2791Z" fill="#2D2D2D"/>
<path fill-rule="evenodd" clip-rule="evenodd" d="M129.071 27.0977V35.5296C129.071 37.6367 128.847 38.807 127.065 38.807C126.762 38.8258 126.459 38.7861 126.172 38.6903V42.3194C126.708 42.5049 127.277 42.5848 127.845 42.5545C132.863 42.5545 133.087 38.9253 133.087 36.8165V30.7285H135.986V42.3194H140V27.0977H129.071Z" fill="#2D2D2D"/>
</g>
<defs>
<clipPath id="clip0_23329_5">
<rect width="115" height="22" fill="white" transform="translate(25 23)"/>
</clipPath>
</defs>
</svg>
