<svg width="166" height="66" viewBox="0 0 166 66" fill="none" xmlns="http://www.w3.org/2000/svg">
<rect width="166" height="66" rx="20" fill="#F1F1F1"/>
<g clip-path="url(#clip0_23329_4)">
<path fill-rule="evenodd" clip-rule="evenodd" d="M65.106 35.1133H70.882V36.9682H68.1349V50.0001H65.106V35.1133Z" fill="#0079C2"/>
<path fill-rule="evenodd" clip-rule="evenodd" d="M74.3052 44.4108L74.8243 36.9665H75.0026L75.5217 44.4108H74.3052ZM70.9534 49.9984H73.9181L74.1981 46.0413H75.6252L75.907 49.9949H78.87L77.2913 35.1099H72.5321L70.9534 49.9984Z" fill="#0079C2"/>
<path fill-rule="evenodd" clip-rule="evenodd" d="M83.2063 44.7891V47.5943C83.2021 47.6575 83.2113 47.7209 83.2332 47.7805C83.2552 47.8401 83.2894 47.8946 83.3338 47.9405C83.3782 47.9865 83.4318 48.0229 83.4912 48.0475C83.5506 48.0721 83.6146 48.0843 83.679 48.0835C83.7436 48.083 83.8074 48.07 83.8668 48.045C83.9262 48.0201 83.9799 47.9839 84.0249 47.9383C84.0699 47.8928 84.1052 47.839 84.1288 47.7799C84.1524 47.7208 84.1639 47.6578 84.1625 47.5943V44.1299C84.1625 43.6653 84.0768 43.1534 82.9459 43.1534H81.7168V41.5176H82.9958C83.8521 41.5176 84.1625 41.323 84.1625 40.4078V37.4501C84.1639 37.3866 84.1524 37.3235 84.1288 37.2645C84.1052 37.2054 84.0699 37.1516 84.0249 37.106C83.9799 37.0605 83.9262 37.0243 83.8668 36.9993C83.8074 36.9744 83.7436 36.9614 83.679 36.9609C83.6142 36.9587 83.5496 36.97 83.4896 36.9942C83.4295 37.0183 83.3753 37.0547 83.3307 37.1009C83.286 37.1471 83.2518 37.2022 83.2304 37.2624C83.2089 37.3226 83.2007 37.3865 83.2063 37.4501V39.8783H80.1738V37.7744C80.1738 36.7365 80.2987 35.1147 82.4214 35.1147H84.9295C87.0523 35.1147 87.1878 36.7365 87.1878 37.7744V40.1536C87.1878 41.7771 86.0337 42.2154 85.1275 42.1786V42.3258C87.1646 42.2767 87.1878 43.8143 87.1878 44.3386V47.3383C87.1878 48.3903 87.0523 49.998 84.9295 49.998H82.425C80.3023 49.998 80.1774 48.3885 80.1774 47.3383V44.7891H83.2063Z" fill="#0079C2"/>
<path fill-rule="evenodd" clip-rule="evenodd" d="M89.1786 35.1133H96.1926V50.0001H93.1637V36.9682H92.2075V50.0001H89.1786V35.1133Z" fill="#0079C2"/>
<path fill-rule="evenodd" clip-rule="evenodd" d="M101.209 43.2992V36.9665H101.607C101.929 36.9665 102.165 37.2365 102.165 37.7116V42.5558C102.165 43.0309 101.929 43.2992 101.607 43.2992H101.209ZM98.1763 49.9983H101.209V44.9349H102.946C105.056 44.9349 105.194 43.3237 105.194 42.2753V37.7729C105.194 36.735 105.056 35.1133 102.946 35.1133H98.1798L98.1763 49.9983Z" fill="#0079C2"/>
<path fill-rule="evenodd" clip-rule="evenodd" d="M111.164 47.5946C111.166 47.658 111.154 47.7211 111.131 47.7802C111.107 47.8392 111.072 47.8931 111.027 47.9386C110.982 47.9841 110.928 48.0204 110.869 48.0453C110.809 48.0702 110.745 48.0833 110.681 48.0838C110.616 48.0846 110.553 48.0724 110.493 48.0478C110.434 48.0231 110.38 47.9867 110.336 47.9407C110.292 47.8947 110.258 47.8403 110.236 47.7807C110.214 47.7211 110.205 47.6577 110.21 47.5946V37.4503C110.204 37.387 110.212 37.3232 110.234 37.2631C110.255 37.203 110.289 37.1481 110.334 37.1019C110.378 37.0557 110.432 37.0192 110.492 36.995C110.552 36.9707 110.616 36.9592 110.681 36.9612C110.745 36.9616 110.809 36.9747 110.869 36.9996C110.928 37.0245 110.982 37.0608 111.027 37.1063C111.072 37.1518 111.107 37.2057 111.131 37.2648C111.154 37.3238 111.166 37.3869 111.164 37.4503V47.5893V47.5946ZM107.181 47.3386C107.181 48.3906 107.318 49.9983 109.429 49.9983H111.949C114.059 49.9983 114.197 48.3888 114.197 47.3386V37.7729C114.197 36.735 114.059 35.1133 111.949 35.1133H109.427C107.317 35.1133 107.179 36.735 107.179 37.7729L107.181 47.3386Z" fill="#0079C2"/>
<path fill-rule="evenodd" clip-rule="evenodd" d="M124.052 35.1133H128V50.0001H124.971V40.664H124.859L123.294 50.0001H120.874L119.322 40.664H119.209V50.0001H116.18V35.1133H120.116L122.09 45.5819L124.052 35.1133Z" fill="#0079C2"/>
<path fill-rule="evenodd" clip-rule="evenodd" d="M61.1815 14.7598C60.254 10.7695 57.9296 7.52422 57.6139 7C57.1091 7.74337 55.2539 10.6117 54.312 13.7833C53.3709 16.9579 53.0906 20.2864 53.4879 23.5699C53.8447 26.6696 55.1736 29.8535 55.1736 29.8535C55.8872 31.5138 56.9414 33.3074 57.6317 34.1858C58.636 32.8919 60.9621 29.0347 61.6935 24.0082C62.0967 21.203 62.1145 18.7485 61.1887 14.7598H61.1815ZM57.6139 33.1847C57.159 32.3431 56.4508 30.7441 56.3848 28.2545C56.367 25.8631 57.3445 23.8013 57.6335 23.3735C57.8886 23.8013 58.7288 25.5949 58.8305 28.0477C58.8774 29.8335 58.4599 31.6017 57.6175 33.1847H57.6139ZM60.9175 21.5326C60.8973 22.9101 60.7444 24.2826 60.4609 25.6317C60.5207 23.6788 60.3513 21.7257 59.9561 19.8109C59.569 17.9928 58.4719 14.9422 57.5978 13.5396C56.7898 14.8826 55.7944 17.5177 55.2789 19.7987C54.7633 22.0796 54.7437 24.8515 54.7437 25.6808C54.4246 23.7985 54.2944 21.89 54.3549 19.9828C54.4537 18.2342 54.7365 16.5003 55.1986 14.8089C56.2261 11.5514 57.3891 9.46506 57.6085 9.13545C58.6461 10.9001 59.4659 12.7799 60.0506 14.7353C60.6553 16.9512 60.9452 19.2386 60.9122 21.5326H60.9175Z" fill="#0079C2"/>
<path fill-rule="evenodd" clip-rule="evenodd" d="M59.1818 35.1132H52.1321V39.761C52.1321 39.761 52.1429 39.7488 52.15 39.7488C52.5421 39.3496 53.0112 39.0312 53.5298 38.812C54.0484 38.5929 54.6063 38.4775 55.1708 38.4724C55.7353 38.4674 56.2952 38.5729 56.8178 38.7827C57.3404 38.9926 57.8152 39.3026 58.2146 39.6947C58.6141 40.0868 58.9301 40.5532 59.1442 41.0666C59.3583 41.5799 59.4663 42.1301 59.4619 42.6849C59.4574 43.2398 59.3406 43.7882 59.1183 44.2982C58.8959 44.8082 58.5725 45.2696 58.1668 45.6554C58.1668 45.6677 58.1526 45.6677 58.1436 45.68C58.1436 45.68 58.1276 45.6923 58.1204 45.7045C57.13 46.6731 55.9118 47.3867 54.5739 47.7822C53.2359 48.1778 51.8194 48.243 50.4496 47.9723C49.0799 47.7015 47.7992 47.1031 46.7208 46.2299C45.6425 45.3567 44.7997 44.2358 44.2672 42.9662C43.7347 41.6966 43.5288 40.3176 43.6678 38.9512C43.8067 37.5848 44.2863 36.2731 45.0639 35.1322C45.8416 33.9914 46.8934 33.0565 48.1262 32.4104C49.3591 31.7643 50.735 31.4268 52.1321 31.4279V20.251C49.6232 20.2507 47.1536 20.8638 44.9457 22.035C42.7379 23.2062 40.8611 24.8988 39.4844 26.9604C38.1077 29.0219 37.2743 31.3876 37.0593 33.8444C36.8443 36.3013 37.2544 38.7721 38.2528 41.0344C39.2511 43.2967 40.8063 45.2794 42.7782 46.804C44.7502 48.3285 47.077 49.3471 49.5491 49.7679C52.0213 50.1887 54.5611 49.9985 56.9398 49.2145C59.3186 48.4305 61.4616 47.0773 63.1758 45.2768V35.1079L59.1818 35.1132Z" fill="#0079C2"/>
</g>
<defs>
<clipPath id="clip0_23329_4">
<rect width="91" height="43" fill="white" transform="translate(37 7)"/>
</clipPath>
</defs>
</svg>
