<svg width="361" height="87" viewBox="0 0 361 87" fill="none" xmlns="http://www.w3.org/2000/svg">
<g filter="url(#filter0_i_12_883)">
<rect width="361" height="87" rx="11" fill="#2194FF"/>
</g>
<rect x="2" y="2" width="357" height="83" rx="9" stroke="url(#paint0_linear_12_883)" stroke-width="4"/>
<path opacity="0.31" d="M352 30.1618V18.3426C351.935 16.0942 351.136 13.9649 349.773 12.4071C348.411 10.8493 346.592 9.98582 344.704 10.0002H16.0193C15.0986 9.99886 14.1868 10.2136 13.3357 10.6321C12.4847 11.0507 11.7112 11.6648 11.0594 12.4395C10.4076 13.2141 9.89024 14.1342 9.53689 15.147C9.18354 16.1599 9.0011 17.2457 9 18.3426V54C9 54 53.0868 35.8366 146.938 29.5923C234.181 23.7876 352 30.1618 352 30.1618Z" fill="url(#paint1_linear_12_883)"/>
<path opacity="0.15" d="M11 79H344.97C345.893 79.0013 346.807 78.7865 347.66 78.3677C348.513 77.949 349.288 77.3346 349.94 76.5596C350.593 75.7847 351.111 74.8644 351.465 73.8514C351.818 72.8385 352 71.7526 352 70.6561V53C352 53 338.016 69.4484 262.131 72.8518C195.787 75.8461 11 79 11 79Z" fill="white"/>
<defs>
<filter id="filter0_i_12_883" x="0" y="0" width="361" height="91" filterUnits="userSpaceOnUse" color-interpolation-filters="sRGB">
<feFlood flood-opacity="0" result="BackgroundImageFix"/>
<feBlend mode="normal" in="SourceGraphic" in2="BackgroundImageFix" result="shape"/>
<feColorMatrix in="SourceAlpha" type="matrix" values="0 0 0 0 0 0 0 0 0 0 0 0 0 0 0 0 0 0 127 0" result="hardAlpha"/>
<feOffset dy="4"/>
<feGaussianBlur stdDeviation="6"/>
<feComposite in2="hardAlpha" operator="arithmetic" k2="-1" k3="1"/>
<feColorMatrix type="matrix" values="0 0 0 0 0 0 0 0 0 0 0 0 0 0 0 0 0 0 0.45 0"/>
<feBlend mode="normal" in2="shape" result="effect1_innerShadow_12_883"/>
</filter>
<linearGradient id="paint0_linear_12_883" x1="-3.40338e-07" y1="32" x2="361" y2="32" gradientUnits="userSpaceOnUse">
<stop stop-color="#2194FF"/>
<stop offset="0.522421" stop-color="#81C0FB"/>
<stop offset="1" stop-color="#0079C2"/>
</linearGradient>
<linearGradient id="paint1_linear_12_883" x1="180.5" y1="0.568788" x2="180.5" y2="64.4105" gradientUnits="userSpaceOnUse">
<stop stop-color="#81C0FB"/>
<stop offset="1" stop-color="white"/>
</linearGradient>
</defs>
</svg>
